<?xml version="1.0" encoding="utf-8"?>
<!-- Generator: Adobe Illustrator 22.0.1, SVG Export Plug-In . SVG Version: 6.00 Build 0)  -->
<svg version="1.1" id="Layer_1" xmlns="http://www.w3.org/2000/svg" xmlns:xlink="http://www.w3.org/1999/xlink" x="0px" y="0px"
	 viewBox="0 0 841.9 595.3" style="enable-background:new 0 0 841.9 595.3;" xml:space="preserve">
<style type="text/css">
	.st0{fill:#00B14F;}
</style>
<path class="st0" d="M506.6,270.6V159.6h-55.8v77.7c1.7-0.1,3.4-0.2,5.2-0.2C480,237,501.6,248,506.6,270.6"/>
<path class="st0" d="M506.6,328.2v-40c-2,7.1-6.8,14.4-12.7,21.4c0,0,0,0,0,0c-4,4.7-8.5,9.2-13.1,13.4l-22.4,23h47.4v2.8v18.3v9.8
	h100.8v-48.7H506.6z"/>
<path class="st0" d="M456.2,266.7c-1.6,0-3,0.1-4.4,0.4c-0.3,0.1-0.7,0.1-1,0.2c-13.9,2.6-19.6,15.5-19.8,29h-30.7
	c-10.7,19.3-24.9,37.4-50.2,37.2c-27.9,1.4-55.3-22.1-56-60.9c-1.2-42.1,28.1-64.5,54.2-63.5c16,0.7,35.4,9.3,41.2,27l50.4-23.9
	c-21.4-35.6-56.2-53.7-89.8-52.3c-63-0.5-112.8,38.8-114.9,110.4c0,68.6,54.2,106.9,101,109.7c23.2,1.3,42.9-5.4,56.6-16.7l0,0
	l0.3-0.2l4.3-3.9l2.8-2.6c-0.3,0.4-0.5,0.8-0.8,1.2l3-2.8l25.9-23.8l0,0l22.4-20.2l1-0.9l5.6-5c9.3-7.9,16.7-15.6,16.7-20.9
	C474,273.2,466.9,266.7,456.2,266.7"/>
<path class="st0" d="M345.3,253.3v42.5l54.8,0.3c-1-17.4,4.5-32.3,14.7-42.8H345.3z"/>
<path class="st0" d="M400,296.1C400,296.1,400,296.1,400,296.1l0.3,0c0,0,0,0,0,0L400,296.1z"/>
<polygon class="st0" points="242.8,435 242.8,395.1 248.1,395.1 248.1,430.3 267.8,430.3 267.8,435 "/>
<path class="st0" d="M286.4,415.7c0,4.8,1.3,8.6,3.9,11.4c2.6,2.8,5.8,4.2,9.7,4.2c4,0,7.2-1.4,9.8-4.2c2.6-2.8,3.9-6.8,3.9-11.9
	c0-3.2-0.5-6.1-1.6-8.5c-1.1-2.4-2.7-4.3-4.8-5.6c-2.1-1.3-4.5-2-7.1-2c-3.7,0-7,1.3-9.6,3.8C287.8,405.4,286.4,409.7,286.4,415.7
	 M281,415.6c0-6.6,1.8-11.8,5.3-15.6c3.6-3.7,8.1-5.6,13.8-5.6c3.7,0,7,0.9,10,2.6c3,1.8,5.2,4.2,6.8,7.4c1.6,3.1,2.3,6.7,2.3,10.7
	c0,4-0.8,7.7-2.4,10.9c-1.6,3.2-3.9,5.6-6.9,7.3c-3,1.6-6.2,2.5-9.7,2.5c-3.8,0-7.1-0.9-10.1-2.7c-3-1.8-5.2-4.3-6.7-7.4
	C281.7,422.4,281,419.1,281,415.6"/>
<path class="st0" d="M353.1,419.4v-4.7l16.9,0v14.8c-2.6,2.1-5.3,3.6-8,4.7c-2.8,1-5.6,1.6-8.5,1.6c-3.9,0-7.5-0.8-10.7-2.5
	c-3.2-1.7-5.6-4.1-7.3-7.3c-1.6-3.2-2.4-6.7-2.4-10.6c0-3.9,0.8-7.5,2.4-10.9c1.6-3.4,4-5.9,7-7.5c3-1.6,6.6-2.4,10.5-2.4
	c2.9,0,5.5,0.5,7.8,1.4c2.3,0.9,4.2,2.2,5.5,3.9c1.3,1.7,2.3,3.8,3,6.5l-4.8,1.3c-0.6-2-1.3-3.6-2.2-4.8c-0.9-1.2-2.2-2.1-3.8-2.8
	c-1.7-0.7-3.5-1-5.5-1c-2.4,0-4.5,0.4-6.3,1.1c-1.8,0.7-3.2,1.7-4.3,2.9c-1.1,1.2-1.9,2.5-2.5,3.9c-1,2.5-1.5,5.1-1.5,8
	c0,3.6,0.6,6.5,1.8,8.9c1.2,2.4,3,4.2,5.3,5.3c2.3,1.2,4.8,1.7,7.5,1.7c2.3,0,4.5-0.4,6.7-1.3c2.2-0.9,3.8-1.8,5-2.8v-7.4H353.1z"/>
<path class="st0" d="M387.2,395.1h5.3V435h-5.3V395.1z M385.9,392.7l3.6-7.6h6.4l-6,7.6H385.9z"/>
<path class="st0" d="M408.5,422.2l5-0.4c0.2,2,0.8,3.6,1.6,4.9c0.9,1.3,2.2,2.3,4,3.1c1.8,0.8,3.9,1.2,6.1,1.2c2,0,3.8-0.3,5.3-0.9
	c1.5-0.6,2.7-1.4,3.4-2.5c0.8-1,1.1-2.2,1.1-3.4c0-1.3-0.4-2.3-1.1-3.3c-0.7-0.9-1.9-1.7-3.6-2.4c-1.1-0.4-3.4-1.1-7.1-1.9
	c-3.7-0.9-6.2-1.7-7.7-2.5c-1.9-1-3.3-2.2-4.3-3.7s-1.4-3.1-1.4-5c0-2,0.6-3.9,1.7-5.6c1.1-1.8,2.8-3.1,5-4c2.2-0.9,4.6-1.4,7.3-1.4
	c3,0,5.6,0.5,7.8,1.4s4,2.4,5.2,4.2c1.2,1.8,1.9,3.9,2,6.3l-5.1,0.4c-0.3-2.5-1.2-4.4-2.8-5.7c-1.6-1.3-3.9-1.9-7-1.9
	c-3.2,0-5.5,0.6-7,1.8c-1.5,1.2-2.2,2.6-2.2,4.2c0,1.4,0.5,2.6,1.6,3.5c1,0.9,3.7,1.9,8,2.8c4.3,1,7.2,1.8,8.8,2.5
	c2.3,1.1,4,2.4,5.1,4.1c1.1,1.6,1.7,3.5,1.7,5.7c0,2.1-0.6,4.1-1.8,6c-1.2,1.9-3,3.3-5.2,4.4c-2.3,1-4.8,1.6-7.7,1.6
	c-3.6,0-6.6-0.5-9.1-1.6s-4.4-2.6-5.7-4.7C409.3,427.3,408.6,424.9,408.5,422.2"/>
<polygon class="st0" points="466.2,435 466.2,399.8 453,399.8 453,395.1 484.7,395.1 484.7,399.8 471.5,399.8 471.5,435 "/>
<rect x="499.5" y="395.1" class="st0" width="5.3" height="39.9"/>
<path class="st0" d="M551.1,421l5.3,1.3c-1.1,4.3-3.1,7.6-6,9.9s-6.4,3.4-10.5,3.4c-4.3,0-7.8-0.9-10.5-2.6
	c-2.7-1.8-4.7-4.3-6.2-7.6c-1.4-3.3-2.1-6.9-2.1-10.7c0-4.2,0.8-7.8,2.4-10.9c1.6-3.1,3.8-5.4,6.8-7c2.9-1.6,6.2-2.4,9.7-2.4
	c4,0,7.3,1,10.1,3c2.7,2,4.6,4.9,5.7,8.6l-5.2,1.2c-0.9-2.9-2.3-5-4-6.3c-1.8-1.3-4-2-6.6-2c-3.1,0-5.6,0.7-7.7,2.2
	c-2.1,1.5-3.5,3.4-4.3,5.9c-0.8,2.5-1.3,5-1.3,7.7c0,3.4,0.5,6.4,1.5,8.9c1,2.5,2.5,4.4,4.6,5.7c2.1,1.3,4.3,1.9,6.8,1.9
	c3,0,5.5-0.9,7.5-2.6C549,426.9,550.4,424.4,551.1,421"/>
<path class="st0" d="M578.5,418.7H592l-4.2-11c-1.3-3.4-2.2-6.1-2.8-8.3c-0.5,2.6-1.2,5.1-2.2,7.6L578.5,418.7z M567,435l15.3-39.9
	h5.7l16.3,39.9h-6l-4.7-12.1H577l-4.4,12.1H567z"/>
</svg>
